<svg width="512" height="512" viewBox="0 0 512 512" fill="none" xmlns="http://www.w3.org/2000/svg">
<path d="M255.452 511.861C396.534 511.861 510.904 397.491 510.904 256.409C510.904 115.327 396.534 0.957031 255.452 0.957031C114.37 0.957031 0 115.327 0 256.409C0 397.491 114.37 511.861 255.452 511.861Z" fill="#2D3E51"/>
<path d="M255.452 474.179C375.723 474.179 473.222 376.68 473.222 256.409C473.222 136.138 375.723 38.6392 255.452 38.6392C135.181 38.6392 37.6821 136.138 37.6821 256.409C37.6821 376.68 135.181 474.179 255.452 474.179Z" fill="#F0F0F0"/>
<path d="M255.452 422.038C164.121 422.038 89.8179 347.735 89.8179 256.404C89.8179 165.073 164.121 90.771 255.452 90.771C346.783 90.771 421.085 165.074 421.085 256.405C421.085 347.736 346.782 422.038 255.452 422.038Z" fill="#2BB58E"/>
<path d="M255.452 369.905C192.867 369.905 141.951 318.989 141.951 256.404C141.951 193.819 192.867 142.903 255.452 142.903C318.036 142.903 368.952 193.819 368.952 256.404C368.952 318.989 318.036 369.905 255.452 369.905Z" fill="#F0F0F0"/>
<path d="M255.452 317.772C221.614 317.772 194.084 290.243 194.084 256.404C194.084 222.565 221.613 195.036 255.452 195.036C289.291 195.036 316.819 222.565 316.819 256.404C316.819 290.243 289.29 317.772 255.452 317.772Z" fill="#2BB58E"/>
<path d="M465.661 66.431L265.049 267.042C259.54 272.551 250.607 272.551 245.098 267.042C239.589 261.533 239.589 252.6 245.098 247.091L445.709 46.479L465.661 66.431Z" fill="#9FC5E6"/>
<path d="M465.661 66.4311L265.049 267.042C259.54 272.551 250.607 272.551 245.098 267.042L455.685 56.4551L465.661 66.4311Z" fill="#5897D1"/>
<path d="M350.457 77.3721L427.688 0.140137L445.709 46.4791L368.477 123.711L350.457 77.3721Z" fill="#2BB58E"/>
<path d="M367.834 59.9947L379.419 48.4097L397.439 94.7487L385.855 106.334L367.834 59.9947Z" fill="#279677"/>
<path d="M396.152 31.6758L407.737 20.0908L425.757 66.4308L414.172 78.0148L396.152 31.6758Z" fill="#279677"/>
<path d="M465.661 66.4307L388.429 143.663L434.768 161.683L512 84.4507L465.661 66.4307Z" fill="#279677"/>
<path d="M445.709 86.3818L434.125 97.9668L480.464 115.988L492.049 104.403L445.709 86.3818Z" fill="#2BB58E"/>
<path d="M417.391 114.701L405.806 126.286L452.145 144.306L463.73 132.721L417.391 114.701Z" fill="#2BB58E"/>
</svg>
