<svg width="24" height="24" viewBox="0 0 24 24" fill="none" xmlns="http://www.w3.org/2000/svg">
<path fill-rule="evenodd" clip-rule="evenodd" d="M18.0432 3.14516C18.0432 1.5935 19.3032 0.333496 20.8548 0.333496C22.4065 0.333496 23.6665 1.5935 23.6665 3.14516C23.6665 4.69683 22.4065 5.95683 20.8548 5.95683C19.3032 5.95683 18.0432 4.69683 18.0432 3.14516ZM13.5513 15.2195L16.923 10.869L16.8763 10.8923C17.063 10.6357 17.098 10.309 16.9696 10.0173C16.8425 9.72567 16.5613 9.52734 16.2591 9.504C15.943 9.469 15.6291 9.609 15.4413 9.86567L12.6191 13.5173L9.3863 10.974C9.18797 10.8223 8.95463 10.7628 8.7213 10.7873C8.48913 10.8223 8.27913 10.9495 8.13797 11.1362L4.6858 15.629L4.61463 15.734C4.4163 16.1062 4.50963 16.5845 4.85963 16.8423C5.02297 16.9473 5.19797 17.0173 5.3963 17.0173C5.6658 17.029 5.9213 16.8878 6.08463 16.6673L9.01297 12.8978L12.338 15.3957L12.443 15.4645C12.8163 15.6628 13.283 15.5707 13.5513 15.2195ZM16.0247 2.41052C15.978 2.70219 15.9547 2.99386 15.9547 3.28552C15.9547 5.91053 18.078 8.03269 20.6913 8.03269C20.983 8.03269 21.263 7.99886 21.5547 7.95219V17.366C21.5547 21.3222 19.2213 23.6672 15.2547 23.6672H6.63417C2.66634 23.6672 0.333008 21.3222 0.333008 17.366V8.73386C0.333008 4.76719 2.66634 2.41052 6.63417 2.41052H16.0247Z" fill="#84BB29"/>
</svg>
