<svg width="26" height="25" viewBox="0 0 26 25" fill="none" xmlns="http://www.w3.org/2000/svg">
<path d="M24.6728 9.15385H23.1188V7.63454C23.1188 6.9859 22.5986 6.45703 21.9577 6.45703C21.318 6.45703 20.7965 6.9859 20.7965 7.63454V9.15385H19.2452C18.6042 9.15385 18.084 9.68272 18.084 10.3314C18.084 10.98 18.6042 11.5089 19.2452 11.5089H20.7965V13.0295C20.7965 13.6782 21.318 14.207 21.9577 14.207C22.5986 14.207 23.1188 13.6782 23.1188 13.0295V11.5089H24.6728C25.3125 11.5089 25.834 10.98 25.834 10.3314C25.834 9.68272 25.3125 9.15385 24.6728 9.15385" fill="#84BB29"/>
<path d="M9.6875 16.1641C4.46171 16.1641 0 16.9995 0 20.3376C0 23.6743 4.43455 24.5399 9.6875 24.5399C14.912 24.5399 19.375 23.7044 19.375 20.3664C19.375 17.0284 14.9404 16.1641 9.6875 16.1641" fill="#84BB29"/>
<path opacity="0.4" d="M9.68741 12.9867C13.2454 12.9867 16.0975 10.0979 16.0975 6.494C16.0975 2.89015 13.2454 0 9.68741 0C6.12942 0 3.27734 2.89015 3.27734 6.494C3.27734 10.0979 6.12942 12.9867 9.68741 12.9867" fill="#84BB29"/>
</svg>
