<svg width="69" height="60" viewBox="0 0 69 60" fill="none" xmlns="http://www.w3.org/2000/svg">
<path fill-rule="evenodd" clip-rule="evenodd" d="M45.2672 2.34906C48.8443 3.77281 49.9387 8.73115 51.4014 10.3249C52.8641 11.9186 54.9572 12.4605 56.1154 12.4605C62.2708 12.4605 67.261 17.4507 67.261 23.6026V44.1266C67.261 52.3787 60.5672 59.0724 52.3151 59.0724H16.686C8.43035 59.0724 1.74014 52.3787 1.74014 44.1266V23.6026C1.74014 17.4507 6.73035 12.4605 12.8858 12.4605C14.0404 12.4605 16.1335 11.9186 17.5997 10.3249C19.0624 8.73115 20.1533 3.77281 23.7304 2.34906C27.311 0.925312 41.6901 0.925312 45.2672 2.34906Z" stroke="white" stroke-width="1.5" stroke-linecap="round" stroke-linejoin="round"/>
<path d="M53.9636 21.6458H53.9955" stroke="white" stroke-width="2" stroke-linecap="round" stroke-linejoin="round"/>
<path fill-rule="evenodd" clip-rule="evenodd" d="M45.758 34.4963C45.758 28.2771 40.7182 23.2373 34.499 23.2373C28.2799 23.2373 23.2401 28.2771 23.2401 34.4963C23.2401 40.7154 28.2799 45.7552 34.499 45.7552C40.7182 45.7552 45.758 40.7154 45.758 34.4963Z" stroke="white" stroke-width="1.5" stroke-linecap="round" stroke-linejoin="round"/>
</svg>
