<svg width="47" height="47" viewBox="0 0 47 47" fill="none" xmlns="http://www.w3.org/2000/svg">
<path d="M23.5 3.91675L12.7292 21.5417H34.2708L23.5 3.91675ZM23.5 11.4367L27.2796 17.6251H19.7008L23.5 11.4367ZM34.2708 25.4584C29.3946 25.4584 25.4583 29.3947 25.4583 34.2709C25.4583 39.1472 29.3946 43.0834 34.2708 43.0834C39.1471 43.0834 43.0833 39.1472 43.0833 34.2709C43.0833 29.3947 39.1471 25.4584 34.2708 25.4584ZM34.2708 39.1667C31.5683 39.1667 29.375 36.9734 29.375 34.2709C29.375 31.5684 31.5683 29.3751 34.2708 29.3751C36.9733 29.3751 39.1667 31.5684 39.1667 34.2709C39.1667 36.9734 36.9733 39.1667 34.2708 39.1667ZM5.875 42.1042H21.5417V26.4376H5.875V42.1042ZM9.79167 30.3542H17.625V38.1876H9.79167V30.3542Z" fill="white"/>
</svg>
