<svg width="21" height="21" viewBox="0 0 21 21" fill="none" xmlns="http://www.w3.org/2000/svg">
<path fill-rule="evenodd" clip-rule="evenodd" d="M17.3601 17.3586C14.4312 20.2878 10.0944 20.9206 6.54532 19.2793C6.02139 19.0683 5.59184 18.8978 5.18348 18.8978C4.04605 18.9046 2.63028 20.0075 1.89447 19.2725C1.15866 18.5366 2.26238 17.1197 2.26238 15.9754C2.26238 15.567 2.09865 15.1452 1.88773 14.6202C0.245629 11.0717 0.879354 6.73341 3.80816 3.80524C7.54695 0.0650806 13.6213 0.0650808 17.3601 3.80428C21.1056 7.55021 21.0988 13.6194 17.3601 17.3586Z" stroke="white" stroke-width="1.5" stroke-linecap="round" stroke-linejoin="round"/>
<path d="M14.3586 10.9792H14.3673" stroke="white" stroke-width="2" stroke-linecap="round" stroke-linejoin="round"/>
<path d="M10.5168 10.9792H10.5255" stroke="white" stroke-width="2" stroke-linecap="round" stroke-linejoin="round"/>
<path d="M6.67505 10.9792H6.68367" stroke="white" stroke-width="2" stroke-linecap="round" stroke-linejoin="round"/>
</svg>
