<svg width="1201" height="1201" viewBox="0 0 1201 1201" fill="none" xmlns="http://www.w3.org/2000/svg">
<path d="M0 480.4C0 215.082 215.082 0 480.4 0H720.6C985.918 0 1201 215.082 1201 480.4V720.6C1201 985.918 985.918 1201 720.6 1201H480.4C215.082 1201 0 985.918 0 720.6V480.4Z" fill="#2BB58E"/>
<path d="M545.81 786.482C532.873 786.511 520.323 781.994 510.229 773.701L372.317 660.092C347.797 639.869 343.853 602.976 363.492 577.725C383.131 552.473 418.959 548.414 443.482 568.637L541.675 649.584L753.786 431.17C776.018 408.277 812.096 408.277 834.326 431.17C856.557 454.064 856.559 491.214 834.326 514.104L586.084 769.724C575.353 780.574 560.872 786.596 545.81 786.482Z" fill="white"/>
</svg>
