<svg width="30" height="30" viewBox="0 0 30 30" fill="none" xmlns="http://www.w3.org/2000/svg">
<path d="M24.1559 11.8354C24.1559 11.8354 23.4771 20.2542 23.0834 23.8004C22.8959 25.4942 21.8496 26.4867 20.1359 26.5179C16.8746 26.5767 13.6096 26.5804 10.3496 26.5117C8.70086 26.4779 7.67211 25.4729 7.48836 23.8092C7.09211 20.2317 6.41711 11.8354 6.41711 11.8354" stroke="#FF5B5B" stroke-width="1.5" stroke-linecap="round" stroke-linejoin="round"/>
<path d="M25.8852 7.79932H4.68774" stroke="#FF5B5B" stroke-width="1.5" stroke-linecap="round" stroke-linejoin="round"/>
<path d="M21.8008 7.79948C20.8196 7.79948 19.9746 7.10573 19.7821 6.14448L19.4783 4.62448C19.2908 3.92323 18.6558 3.43823 17.9321 3.43823H12.6408C11.9171 3.43823 11.2821 3.92323 11.0946 4.62448L10.7908 6.14448C10.5983 7.10573 9.75334 7.79948 8.77209 7.79948" stroke="#FF5B5B" stroke-width="1.5" stroke-linecap="round" stroke-linejoin="round"/>
</svg>
