<svg width="31" height="31" viewBox="0 0 31 31" fill="none" xmlns="http://www.w3.org/2000/svg">
<path d="M25.586 4.0601C25.5971 3.04838 25.2043 2.07402 24.4944 1.35305C23.7726 0.639177 22.8025 0.232351 21.7874 0.217809C20.7899 0.213463 19.8315 0.606167 19.124 1.30934L24.4944 6.72345C25.2148 6.02746 25.6107 5.06146 25.586 4.0601Z" fill="white"/>
<path d="M23.2717 7.94556L17.9014 2.5752L5.4578 15.0188L10.8282 20.3891L23.2717 7.94556Z" fill="white"/>
<path d="M4.75919 16.7656L3.53662 22.3107L9.08169 21.0881L4.75919 16.7656Z" fill="white"/>
<path d="M30.1268 29.0352H0.873241C0.390948 29.0352 0 29.4261 0 29.9084C0 30.3907 0.390948 30.7816 0.873241 30.7816H30.1268C30.6091 30.7816 31 30.3907 31 29.9084C31 29.4261 30.6091 29.0352 30.1268 29.0352Z" fill="white"/>
</svg>
