<svg width="512" height="512" viewBox="0 0 512 512" fill="none" xmlns="http://www.w3.org/2000/svg">
<g clip-path="url(#clip0)">
<path d="M501.76 162.361L289.92 307.428L283.733 311.695C266.974 323.005 245.026 323.005 228.266 311.695L222.079 307.428L10.2402 162.574C13.9972 157.147 18.7802 152.509 24.3202 148.921L221.227 21.3479C242.217 7.01086 269.872 7.09586 290.774 21.5609L487.68 149.134C493.111 152.686 497.877 157.162 501.76 162.361Z" fill="#4BE3B8"/>
<path d="M499.414 482.148C489.376 494.306 474.434 501.347 458.667 501.348H53.334C37.517 501.301 22.528 494.275 12.374 482.148L222.081 307.428L228.268 311.695C245.027 323.005 266.975 323.005 283.735 311.695L289.922 307.428L499.414 482.148Z" fill="#2BB58E"/>
<path d="M222.08 307.428L12.3738 482.148C4.39784 472.559 0.0218422 460.486 -0.000157795 448.014V193.721C-0.0401578 182.505 3.55184 171.578 10.2398 162.574L222.08 307.428Z" fill="#32C99F"/>
<path d="M512 193.721V448.014C512.003 460.528 507.54 472.631 499.413 482.147L289.92 307.428L501.76 162.361C508.452 171.444 512.042 182.439 512 193.721Z" fill="#32C99F"/>
</g>
<defs>
<clipPath id="clip0">
<rect width="512.001" height="512.001" fill="white"/>
</clipPath>
</defs>
</svg>
