<svg width="24" height="24" viewBox="0 0 24 24" fill="none" xmlns="http://www.w3.org/2000/svg">
<path d="M12 24C8.79469 24 5.78123 22.7518 3.51469 20.4853C1.24823 18.2188 0 15.2053 0 12C0 8.79469 1.24823 5.78123 3.51469 3.51469C5.78123 1.24823 8.79469 0 12 0C15.2053 0 18.2188 1.24823 20.4853 3.51469C22.7518 5.78123 24 8.79469 24 12C24 15.2053 22.7518 18.2188 20.4853 20.4853C18.2188 22.7518 15.2053 24 12 24ZM12 1.875C6.41705 1.875 1.875 6.41705 1.875 12C1.875 17.583 6.41705 22.125 12 22.125C17.583 22.125 22.125 17.583 22.125 12C22.125 6.41705 17.583 1.875 12 1.875ZM16.3939 14.0713C15.9571 13.7933 15.3776 13.9221 15.0997 14.3589C15.0881 14.3771 13.9214 16.1747 11.9531 16.1747C9.98484 16.1747 8.81812 14.3771 8.80655 14.3589C8.52858 13.9221 7.94916 13.7933 7.51233 14.0713C7.0755 14.3493 6.94673 14.9288 7.2247 15.3655C7.29445 15.4751 8.96714 18.0497 11.9531 18.0497C14.9391 18.0497 16.6118 15.4752 16.6815 15.3655C16.9595 14.9287 16.8307 14.3493 16.3939 14.0713ZM7.875 7.73438C8.5222 7.73438 9.04688 8.25905 9.04688 8.90625C9.04688 9.55345 8.5222 10.0781 7.875 10.0781C7.2278 10.0781 6.70312 9.55345 6.70312 8.90625C6.70312 8.25905 7.2278 7.73438 7.875 7.73438ZM14.9062 8.90625C14.9062 9.55345 15.4309 10.0781 16.0781 10.0781C16.7253 10.0781 17.25 9.55345 17.25 8.90625C17.25 8.25905 16.7253 7.73438 16.0781 7.73438C15.4309 7.73438 14.9062 8.25905 14.9062 8.90625Z" fill="#A8A8A8"/>
</svg>
