<svg width="66" height="63" viewBox="0 0 66 63" fill="none" xmlns="http://www.w3.org/2000/svg">
<path d="M55.3272 52.4253L37.9141 35.2188L34.466 38.7082L51.8791 55.9147L55.3272 52.4253Z" fill="#F3F3F3"/>
<path d="M61.979 57.049L48.4315 43.6623C48.3561 43.5878 48.2345 43.5885 48.16 43.6639L43.0323 48.8531C42.9578 48.9285 42.9585 49.0501 43.034 49.1246L56.5815 62.5114C56.6569 62.5859 56.7784 62.5852 56.853 62.5097L61.9806 57.3205C62.0551 57.2451 62.0544 57.1235 61.979 57.049Z" fill="white"/>
<path d="M22.4803 43.8726C34.46 43.8726 44.1715 34.1612 44.1715 22.1814C44.1715 10.2017 34.46 0.490234 22.4803 0.490234C10.5005 0.490234 0.789062 10.2017 0.789062 22.1814C0.789062 34.1612 10.5005 43.8726 22.4803 43.8726Z" fill="white"/>
<path d="M22.48 40.333C32.505 40.333 40.6319 32.2062 40.6319 22.1812C40.6319 12.1562 32.505 4.0293 22.48 4.0293C12.455 4.0293 4.32812 12.1562 4.32812 22.1812C4.32812 32.2062 12.455 40.333 22.48 40.333Z" fill="#E9F4F0"/>
<path d="M59.1522 2.57183C54.0642 0.922619 48.5656 3.71193 46.9097 8.82086C45.2605 13.9089 48.0498 19.4074 53.1588 21.0633C58.2678 22.7192 63.752 19.9025 65.4015 14.8143C67.0511 9.72601 64.2405 4.22099 59.1522 2.57183ZM57.617 7.30847C58.1865 7.49308 58.6883 7.84267 59.0589 8.3129C59.4294 8.78314 59.652 9.35283 59.6983 9.94972C59.7446 10.5466 59.6126 11.1438 59.319 11.6656C59.0255 12.1873 58.5835 12.6102 58.0493 12.8804C57.5151 13.1507 56.9127 13.2562 56.3184 13.1836C55.7241 13.1109 55.1648 12.8635 54.7114 12.4725C54.258 12.0816 53.9309 11.5648 53.7716 10.9877C53.6123 10.4106 53.628 9.79914 53.8167 9.23097C54.3262 7.659 56.0447 6.79897 57.617 7.30847ZM53.7756 19.1604C52.0852 18.6153 50.6369 17.4994 49.6787 16.004C51.4717 14.9851 53.3465 14.7014 55.0426 15.2511C56.7388 15.8009 58.118 17.1164 58.9451 19.0074C57.2918 19.6564 55.4643 19.7105 53.7756 19.1604Z" fill="white"/>
<path d="M16.8024 48.9372C15.9187 49.3884 15.1885 50.0914 14.7043 50.9575C14.2201 51.8235 14.0036 52.8138 14.0822 53.8029C14.1607 54.792 14.5308 55.7356 15.1457 56.5144C15.7605 57.2932 16.5925 57.8721 17.5364 58.178C18.4803 58.484 19.4937 58.5031 20.4485 58.2331C21.4033 57.9631 22.2566 57.416 22.9004 56.661C23.5443 55.906 23.9498 54.9771 24.0657 53.9917C24.1816 53.0062 24.0027 52.0085 23.5516 51.1248C22.9456 49.9407 21.8947 49.0454 20.6294 48.6353C19.3641 48.2252 17.9878 48.3338 16.8024 48.9372ZM17.9709 51.2264C18.2462 51.0859 18.557 51.0303 18.8639 51.0666C19.1708 51.103 19.4599 51.2297 19.6947 51.4307C19.9295 51.6316 20.0993 51.8978 20.1826 52.1954C20.2659 52.493 20.2589 52.8087 20.1625 53.1023C20.0662 53.396 19.8848 53.6544 19.6413 53.8447C19.3979 54.0351 19.1034 54.1489 18.7952 54.1717C18.487 54.1945 18.179 54.1252 17.9102 53.9726C17.6414 53.8201 17.424 53.5911 17.2856 53.3148C17.102 52.9466 17.0711 52.5208 17.1994 52.1298C17.3277 51.7388 17.6049 51.4142 17.9709 51.2262V51.2264ZM20.8946 56.9544C20.0787 57.3724 19.1428 57.4938 18.2473 57.2976C18.5298 56.2713 19.1106 55.4835 19.9305 55.0651C20.7504 54.6466 21.7337 54.6235 22.7258 55.0117C22.3592 55.852 21.7119 56.5386 20.8946 56.9541V56.9544Z" fill="white"/>
</svg>
