<svg width="26" height="24" viewBox="0 0 26 24" fill="none" xmlns="http://www.w3.org/2000/svg">
<path d="M10.4955 18.8893H1.04443" stroke="white" stroke-width="1.5" stroke-linecap="round" stroke-linejoin="round"/>
<path d="M14.7104 4.35051H24.1615" stroke="white" stroke-width="1.5" stroke-linecap="round" stroke-linejoin="round"/>
<path fill-rule="evenodd" clip-rule="evenodd" d="M8.08943 4.26938C8.08943 2.3259 6.50219 0.75 4.54472 0.75C2.58724 0.75 1 2.3259 1 4.26938C1 6.21287 2.58724 7.78876 4.54472 7.78876C6.50219 7.78876 8.08943 6.21287 8.08943 4.26938Z" stroke="white" stroke-width="1.5" stroke-linecap="round" stroke-linejoin="round"/>
<path fill-rule="evenodd" clip-rule="evenodd" d="M25.0001 18.8307C25.0001 16.8872 23.4141 15.3113 21.4566 15.3113C19.4979 15.3113 17.9106 16.8872 17.9106 18.8307C17.9106 20.7741 19.4979 22.35 21.4566 22.35C23.4141 22.35 25.0001 20.7741 25.0001 18.8307Z" stroke="white" stroke-width="1.5" stroke-linecap="round" stroke-linejoin="round"/>
</svg>
