<svg width="1201" height="1201" viewBox="0 0 1201 1201" fill="none" xmlns="http://www.w3.org/2000/svg">
<path d="M0 480.4C0 215.082 215.082 0 480.4 0H720.6C985.918 0 1201 215.082 1201 480.4V720.6C1201 985.918 985.918 1201 720.6 1201H480.4C215.082 1201 0 985.918 0 720.6V480.4Z" fill="#E36B6B"/>
<path d="M756.673 833.818L601 678.141L445.327 833.818C423.747 855.394 388.762 855.394 367.182 833.818C345.606 812.238 345.606 777.253 367.182 755.673L522.859 600L367.182 444.327C345.606 422.747 345.606 387.762 367.182 366.182C388.762 344.606 423.747 344.606 445.327 366.182L601 521.859L756.673 366.182C778.253 344.606 813.238 344.606 834.818 366.182C856.394 387.762 856.394 422.747 834.818 444.327L679.141 600L834.818 755.673C856.394 777.253 856.394 812.238 834.818 833.818C813.238 855.394 778.253 855.394 756.673 833.818Z" fill="white"/>
</svg>
