<svg width="512" height="512" viewBox="0 0 512 512" fill="none" xmlns="http://www.w3.org/2000/svg">
<path d="M510.461 150.453C509.215 123.203 504.887 104.594 498.559 88.3125C492.133 71.2305 482.055 55.7578 469.031 42.9688C456.246 29.9453 440.77 19.8633 423.688 13.4336C407.402 7.10937 388.797 2.78516 361.547 1.54688C334.246 0.296875 325.523 0 256 0C186.477 0 177.754 0.296875 150.453 1.53906C123.203 2.78516 104.598 7.11328 88.3125 13.4414C71.2305 19.8672 55.7578 29.9453 42.9688 42.9688C29.9453 55.7539 19.8633 71.2266 13.4336 88.3086C7.10937 104.594 2.78516 123.203 1.54688 150.449C0.296875 177.754 0 186.473 0 255.996C0 325.523 0.296875 334.246 1.54688 361.547C2.78906 388.793 7.11719 407.402 13.4453 423.688C19.8711 440.766 29.9492 456.242 42.9727 469.027C55.7578 482.051 71.2344 492.129 88.3164 498.555C104.598 504.887 123.207 509.211 150.457 510.457C177.762 511.703 186.48 511.996 256.004 511.996C325.527 511.996 334.25 511.703 361.551 510.457C388.801 509.211 407.406 504.887 423.691 498.555C458.078 485.258 485.262 458.074 498.559 423.688C504.891 407.402 509.215 388.793 510.461 361.547C511.703 334.242 512 325.523 512 256C512 186.473 511.703 177.754 510.461 150.453V150.453ZM464.379 359.449C463.242 384.41 459.07 397.965 455.566 406.984C446.953 429.312 429.309 446.957 406.98 455.57C397.961 459.074 384.406 463.246 359.445 464.383C332.457 465.617 324.359 465.875 256 465.875C187.637 465.875 179.543 465.617 152.551 464.383C127.594 463.246 114.039 459.074 105.016 455.57C93.8984 451.465 83.8398 444.922 75.582 436.418C67.0781 428.16 60.5352 418.105 56.4297 406.984C52.9258 397.965 48.7539 384.41 47.6172 359.449C46.3867 332.457 46.125 324.359 46.125 256.004C46.125 187.645 46.3867 179.551 47.6172 152.555C48.7578 127.594 52.9258 114.039 56.4297 105.02C60.5352 93.8984 67.082 83.8398 75.582 75.582C83.8398 67.0781 93.8984 60.5352 105.02 56.4336C114.039 52.9258 127.594 48.7578 152.555 47.6172C179.547 46.3867 187.645 46.125 256 46.125H255.996C324.352 46.125 332.449 46.3867 359.445 47.6211C384.406 48.7578 397.957 52.9297 406.98 56.4336C418.098 60.5391 428.156 67.082 436.414 75.582C444.918 83.8398 451.461 93.8984 455.562 105.02C459.07 114.039 463.242 127.594 464.379 152.555C465.609 179.547 465.871 187.645 465.871 256C465.871 324.359 465.613 332.453 464.379 359.449Z" fill="white"/>
<path d="M255.996 124.539C183.395 124.539 124.539 183.398 124.539 256C124.539 328.602 183.395 387.457 255.996 387.457C328.602 387.457 387.457 328.602 387.457 256C387.457 183.398 328.602 124.539 255.996 124.539V124.539ZM255.996 341.332C208.871 341.328 170.664 303.125 170.668 255.996C170.668 208.871 208.871 170.664 256 170.664C303.129 170.668 341.332 208.871 341.332 255.996C341.332 303.125 303.125 341.332 255.996 341.332V341.332Z" fill="white"/>
<path d="M423.371 119.348C423.371 136.312 409.617 150.066 392.652 150.066C375.684 150.066 361.93 136.312 361.93 119.348C361.93 102.379 375.684 88.625 392.652 88.625C409.617 88.625 423.371 102.379 423.371 119.348V119.348Z" fill="white"/>
</svg>
