<svg width="24" height="24" viewBox="0 0 24 24" fill="none" xmlns="http://www.w3.org/2000/svg">
<path fill-rule="evenodd" clip-rule="evenodd" d="M0.333374 12.0067C0.333374 5.56721 5.56986 0.333252 12 0.333252C18.4302 0.333252 23.6667 5.56721 23.6667 12.0067C23.6667 18.4326 18.4302 23.6666 12 23.6666C5.56986 23.6666 0.333374 18.4326 0.333374 12.0067ZM16.2793 13.1874C16.4032 13.0636 16.5608 12.8722 16.5946 12.8272C16.7748 12.5908 16.8649 12.2982 16.8649 12.0066C16.8649 11.6791 16.7635 11.3752 16.5721 11.1276C16.5564 11.1119 16.5257 11.0785 16.4857 11.0349C16.4108 10.9534 16.3032 10.8363 16.2005 10.7336C15.2771 9.7431 12.8672 8.12226 11.6059 7.62701C11.4145 7.54934 10.9302 7.37938 10.6712 7.36812C10.4235 7.36812 10.187 7.4244 9.96175 7.53696C9.68022 7.69454 9.45499 7.94217 9.33112 8.23482C9.25229 8.43742 9.12842 9.04524 9.12842 9.05649C9.00454 9.72059 8.93697 10.8011 8.93697 11.9943C8.93697 13.1322 9.00454 14.1666 9.10589 14.842C9.10868 14.8448 9.11837 14.8931 9.13342 14.9681C9.17917 15.1962 9.27448 15.6715 9.37616 15.8663C9.62391 16.339 10.1081 16.6317 10.6262 16.6317H10.6712C11.009 16.6204 11.7185 16.3278 11.7185 16.3165C12.9122 15.8212 15.2658 14.2792 16.2117 13.2549L16.2793 13.1874Z" fill="#26AA76"/>
</svg>
