<svg width="30" height="30" viewBox="0 0 30 30" fill="none" xmlns="http://www.w3.org/2000/svg">
<g clip-path="url(#clip0)">
<path d="M15.8575 13.0046C15.5282 13.3339 15.5282 13.8621 15.8575 14.1914C17.2183 15.5522 17.2183 17.7643 15.8575 19.1251L8.71168 26.271C7.35087 27.6318 5.13877 27.6318 3.77796 26.271L2.70298 25.196C1.34217 23.8352 1.34217 21.6231 2.70298 20.2623L9.8488 13.1164C10.1781 12.7871 10.1781 12.2589 9.8488 11.9296C9.51947 11.6003 8.9913 11.6003 8.66197 11.9296L1.51616 19.0754C0.540596 20.051 0 21.3497 0 22.7291C0 24.1086 0.534383 25.4072 1.51616 26.3828L2.59113 27.4578C3.59776 28.4644 4.92129 28.9677 6.24482 28.9677C7.56835 28.9677 8.89188 28.4644 9.89851 27.4578L17.0443 20.312C19.0576 18.2987 19.0576 15.0179 17.0443 13.0046C16.7212 12.6753 16.1868 12.6753 15.8575 13.0046Z" fill="white"/>
<path d="M28.4906 3.61617L27.4157 2.54119C25.4024 0.527936 22.1215 0.527936 20.1083 2.54119L12.9625 9.68701C10.9492 11.7003 10.9492 14.9811 12.9625 16.9944C13.2918 17.3237 13.82 17.3237 14.1493 16.9944C14.4786 16.6651 14.4786 16.1369 14.1493 15.8076C12.7885 14.4467 12.7885 12.2346 14.1493 10.8738L21.2951 3.72802C22.6559 2.36721 24.868 2.36721 26.2288 3.72802L27.3038 4.803C28.6646 6.16381 28.6646 8.37591 27.3038 9.73672L20.158 16.8825C19.8287 17.2119 19.8287 17.74 20.158 18.0694C20.3195 18.2309 20.537 18.3179 20.7483 18.3179C20.9596 18.3179 21.177 18.2371 21.3386 18.0694L28.4844 10.9235C29.46 9.94799 30.0006 8.64931 30.0006 7.26986C30.0006 5.89041 29.4662 4.59173 28.4906 3.61617Z" fill="white"/>
</g>
<defs>
<clipPath id="clip0">
<rect width="30" height="30" fill="white"/>
</clipPath>
</defs>
</svg>
