<svg width="29" height="37" viewBox="0 0 29 37" fill="none" xmlns="http://www.w3.org/2000/svg">
<path d="M14.501 0C6.5977 0 0.167603 5.53287 0.167603 12.3334C0.167603 14.3749 0.760784 16.399 1.88844 18.1944L13.7171 36.6025C13.8746 36.848 14.1747 37 14.501 37C14.8272 37 15.1273 36.848 15.2848 36.6025L27.1179 18.1883C28.2411 16.399 28.8343 14.3748 28.8343 12.3333C28.8343 5.53287 22.4042 0 14.501 0ZM14.501 18.5C10.5493 18.5 7.33433 15.7336 7.33433 12.3334C7.33433 8.93312 10.5493 6.16671 14.501 6.16671C18.4526 6.16671 21.6676 8.93312 21.6676 12.3334C21.6676 15.7336 18.4526 18.5 14.501 18.5Z" fill="#E5E5E5"/>
</svg>
