<svg width="512" height="512" viewBox="0 0 512 512" fill="none" xmlns="http://www.w3.org/2000/svg">
<g clip-path="url(#clip0)">
<path d="M454.848 198.848C454.848 358.073 275.097 505.537 275.097 505.537C264.594 514.154 247.405 514.154 236.902 505.537C236.902 505.537 57.1509 358.073 57.1509 198.848C57.1529 89.027 146.18 0 256 0C365.82 0 454.848 89.027 454.848 198.848Z" fill="#4BE3B8"/>
<path d="M256 298.89C200.836 298.89 155.959 254.011 155.959 198.849C155.959 143.687 200.838 98.8059 256 98.8059C311.162 98.8059 356.041 143.685 356.041 198.847C356.041 254.009 311.164 298.89 256 298.89Z" fill="#2D3E52"/>
</g>
<defs>
<clipPath id="clip0">
<rect width="511.999" height="511.999" fill="white"/>
</clipPath>
</defs>
</svg>
