<svg width="34" height="34" viewBox="0 0 34 34" fill="none" xmlns="http://www.w3.org/2000/svg">
<path d="M16.9994 0C10.7503 0 5.66602 5.08426 5.66602 11.3334C5.66602 13.2093 6.13504 15.0694 7.02668 16.7192L16.3796 33.6348C16.5041 33.8603 16.7414 34 16.9994 34C17.2574 34 17.4946 33.8603 17.6191 33.6348L26.9755 16.7136C27.8637 15.0694 28.3327 13.2093 28.3327 11.3333C28.3327 5.08426 23.2485 0 16.9994 0ZM16.9994 17C13.8748 17 11.3327 14.4579 11.3327 11.3334C11.3327 8.20881 13.8748 5.66671 16.9994 5.66671C20.1239 5.66671 22.666 8.20881 22.666 11.3334C22.666 14.4579 20.1239 17 16.9994 17Z" fill="#84BB29"/>
</svg>
