<svg width="512" height="512" viewBox="0 0 512 512" fill="none" xmlns="http://www.w3.org/2000/svg">
<path d="M369.324 235.336L39.109 10.1892C31.445 4.95217 21.514 4.41017 13.325 8.73817C5.128 13.0662 0 21.5802 0 30.8532V481.146C0 490.427 5.128 498.933 13.325 503.26C16.994 505.203 21.013 506.162 25.016 506.162C29.953 506.162 34.881 504.694 39.108 501.826L369.323 276.679C376.161 272.018 380.247 264.288 380.247 256.007C380.247 247.726 376.153 239.997 369.324 235.336ZM50.033 433.807V78.1832L310.819 255.999L50.033 433.807Z" fill="white"/>
<path d="M486.984 34.188C473.167 34.188 461.968 45.387 461.968 59.204V452.794C461.968 466.611 473.167 477.81 486.984 477.81C500.81 477.81 512 466.611 512 452.794V59.204C512 45.387 500.801 34.188 486.984 34.188Z" fill="white"/>
</svg>
