<svg width="20" height="24" viewBox="0 0 20 24" fill="none" xmlns="http://www.w3.org/2000/svg">
<path fill-rule="evenodd" clip-rule="evenodd" d="M6.41337 17.1219H12.6972C13.1708 17.1219 13.5635 16.7252 13.5635 16.2469C13.5635 15.7685 13.1708 15.3835 12.6972 15.3835H6.41337C5.93978 15.3835 5.54704 15.7685 5.54704 16.2469C5.54704 16.7252 5.93978 17.1219 6.41337 17.1219ZM10.3177 9.55012H6.41337C5.93978 9.55012 5.54704 9.94679 5.54704 10.4251C5.54704 10.9035 5.93978 11.2885 6.41337 11.2885H10.3177C10.7913 11.2885 11.184 10.9035 11.184 10.4251C11.184 9.94679 10.7913 9.55012 10.3177 9.55012ZM18.5611 8.53004C18.8326 8.52691 19.1283 8.5235 19.3969 8.5235C19.6857 8.5235 19.9167 8.75683 19.9167 9.0485V18.4285C19.9167 21.3218 17.5949 23.6668 14.7302 23.6668H5.53552C2.53222 23.6668 0.083374 21.2052 0.083374 18.1718V5.59516C0.083374 2.70183 2.41671 0.333496 5.29294 0.333496H11.4613C11.7616 0.333496 11.9926 0.578496 11.9926 0.870163V4.62683C11.9926 6.76183 13.7368 8.51183 15.8507 8.5235C16.3445 8.5235 16.7797 8.52719 17.1607 8.53042C17.457 8.53293 17.7205 8.53516 17.953 8.53516C18.1174 8.53516 18.3306 8.5327 18.5611 8.53004ZM18.8796 6.82708C17.9301 6.83058 16.8108 6.82708 16.0057 6.81892C14.7281 6.81892 13.6758 5.75608 13.6758 4.46575V1.39042C13.6758 0.887582 14.2799 0.637915 14.6253 1.00075C15.2502 1.65698 16.1088 2.55892 16.9636 3.45685C17.8169 4.35324 18.6664 5.24563 19.2758 5.88558C19.6131 6.23908 19.3659 6.82592 18.8796 6.82708Z" fill="#84BB29"/>
</svg>
