<svg width="204" height="204" viewBox="0 0 204 204" fill="none" xmlns="http://www.w3.org/2000/svg">
<path d="M177.175 65.9404C180.116 64.53 183.662 65.7641 184.875 68.7911C192.091 86.796 193.265 106.721 188.124 125.535C182.463 146.253 169.523 164.236 151.677 176.187C133.83 188.137 112.274 193.253 90.9611 190.597C69.6481 187.942 50.0066 177.692 35.6387 161.728C21.2707 145.763 13.1392 125.154 12.7354 103.68C12.3315 82.2062 19.6824 61.3063 33.4399 44.813C47.1975 28.3197 66.4396 17.3386 87.6378 13.8834C106.888 10.7457 126.579 14.0052 143.727 23.0709C146.61 24.5951 147.465 28.2516 145.754 31.0276V31.0276C144.042 33.8035 140.413 34.6445 137.515 33.1495C122.799 25.5583 105.983 22.8583 89.5376 25.5388C71.1433 28.537 54.4464 38.0656 42.5085 52.3773C30.5707 66.6891 24.1921 84.8246 24.5426 103.458C24.893 122.092 31.9489 139.975 44.4164 153.828C56.8839 167.68 73.9274 176.574 92.4213 178.879C110.915 181.183 129.62 176.744 145.106 166.374C160.592 156.004 171.82 140.4 176.733 122.422C181.125 106.349 180.205 89.3422 174.2 73.9105C173.018 70.8714 174.235 67.3508 177.175 65.9404V65.9404Z" fill="#84BB29"/>
</svg>
