<svg width="40" height="40" viewBox="0 0 40 40" fill="none" xmlns="http://www.w3.org/2000/svg">
<g id="Iconly/Light-Outline/More Square">
<g id="Group 2296">
<g id="More Square">
<path id="Fill 1" fill-rule="evenodd" clip-rule="evenodd" d="M13.1618 8.32339C9.03298 8.32339 6.36475 11.1516 6.36475 15.5301V28.8598C6.36475 33.2383 9.03298 36.0665 13.1618 36.0665H27.3075C31.4379 36.0665 34.1078 33.2383 34.1078 28.8598V15.5301C34.1078 11.1516 31.4379 8.32339 27.3091 8.32339H13.1618ZM27.3077 38.5146H13.162C7.6313 38.5146 3.91699 34.6339 3.91699 28.86V15.5303C3.91699 9.7565 7.6313 5.87573 13.162 5.87573H27.3093C32.8399 5.87573 36.5559 9.7565 36.5559 15.5303V28.86C36.5559 34.6339 32.8399 38.5146 27.3077 38.5146Z" fill="white"/>
</g>
<path id="?" d="M20.9369 27.3184C20.7502 27.3184 20.5974 27.2506 20.4786 27.1148C20.3598 26.979 20.3004 26.7923 20.3004 26.5547C20.3004 25.5024 20.4871 24.6029 20.8605 23.8561C21.2509 23.1093 21.8025 22.2947 22.5153 21.4121C23.0923 20.6823 23.5166 20.0628 23.7882 19.5537C24.0767 19.0445 24.221 18.4759 24.221 17.8479C24.221 17.1181 23.9579 16.5496 23.4318 16.1422C22.9056 15.7179 22.1928 15.5058 21.2933 15.5058C20.5295 15.5058 19.8252 15.6585 19.1802 15.964C18.5353 16.2526 17.8055 16.7023 16.9908 17.3133C16.7023 17.517 16.4647 17.6188 16.278 17.6188C16.0743 17.6188 15.9046 17.534 15.7688 17.3642C15.65 17.1775 15.5906 16.9654 15.5906 16.7278C15.5906 16.3883 15.7264 16.0913 15.998 15.8367C16.6768 15.1918 17.5 14.6826 18.4674 14.3092C19.4518 13.9189 20.4277 13.7237 21.3951 13.7237C22.8717 13.7237 24.0598 14.0886 24.9593 14.8184C25.8758 15.5482 26.334 16.5071 26.334 17.6952C26.334 18.5947 26.1389 19.3754 25.7485 20.0374C25.3751 20.6823 24.798 21.4461 24.0173 22.3286C23.2875 23.1603 22.719 23.8985 22.3116 24.5435C21.9213 25.1715 21.6836 25.9013 21.5988 26.7329C21.5818 26.9196 21.5139 27.0639 21.3951 27.1657C21.2763 27.2675 21.1236 27.3184 20.9369 27.3184ZM20.9623 32.0028C20.555 32.0028 20.2155 31.867 19.944 31.5954C19.6894 31.3239 19.5621 30.9844 19.5621 30.5771C19.5621 30.1698 19.6894 29.8303 19.944 29.5588C20.2155 29.2703 20.555 29.126 20.9623 29.126C21.3697 29.126 21.7006 29.2703 21.9552 29.5588C22.2268 29.8303 22.3625 30.1698 22.3625 30.5771C22.3625 30.9844 22.2268 31.3239 21.9552 31.5954C21.7006 31.867 21.3697 32.0028 20.9623 32.0028Z" fill="white"/>
</g>
</g>
</svg>
