<svg width="18" height="20" viewBox="0 0 18 20" fill="none" xmlns="http://www.w3.org/2000/svg">
<path fill-rule="evenodd" clip-rule="evenodd" d="M8.7281 19.9137C8.83884 19.9715 8.96267 20.0009 9.08649 20C9.21032 19.999 9.33315 19.9686 9.44489 19.9097L13.0128 18.0025C14.0245 17.4631 14.8168 16.8601 15.435 16.1579C16.779 14.6282 17.5129 12.6758 17.4998 10.6626L17.4575 4.02198C17.4535 3.25711 16.9511 2.57461 16.2082 2.32652L9.57074 0.0995642C9.17106 -0.0357592 8.73313 -0.0328174 8.3405 0.106428L1.72825 2.41281C0.989299 2.67071 0.495998 3.35811 0.500024 4.12397L0.542307 10.7597C0.555395 12.7758 1.31448 14.7194 2.68062 16.2335C3.3048 16.9258 4.10415 17.52 5.12699 18.0505L8.7281 19.9137ZM7.78317 12.1091C7.93216 12.2523 8.12546 12.3229 8.31875 12.3209C8.51205 12.32 8.70433 12.2474 8.85132 12.1023L12.7504 8.2583C13.0434 7.96902 13.0404 7.50421 12.7444 7.21885C12.4474 6.9335 11.9692 6.93546 11.6762 7.22474L8.30768 10.5451L6.92845 9.21929C6.63146 8.93393 6.15426 8.93687 5.8603 9.22615C5.56734 9.51543 5.57036 9.98024 5.86734 10.2656L7.78317 12.1091Z" fill="#8888FF"/>
</svg>
