<svg width="1201" height="1201" viewBox="0 0 1201 1201" fill="none" xmlns="http://www.w3.org/2000/svg">
<path d="M0 480.4C0 215.082 215.082 0 480.4 0H720.6C985.918 0 1201 215.082 1201 480.4V720.6C1201 985.918 985.918 1201 720.6 1201H480.4C215.082 1201 0 985.918 0 720.6V480.4Z" fill="#FABF61"/>
<path d="M850.868 551H351.132C323.446 551.002 301.002 573.462 301 601.167C301.002 628.872 323.446 651.332 351.132 651.334H850.868C878.554 651.332 900.998 628.872 901 601.167C900.998 573.462 878.554 551.002 850.868 551Z" fill="white"/>
</svg>
