<svg version="1.2" xmlns="http://www.w3.org/2000/svg" xmlns:xlink="http://www.w3.org/1999/xlink" overflow="visible" preserveAspectRatio="none" viewBox="0 0 10 12.000005582432125" width="10" height="12.000005582432125"><g transform="translate(0, 0)"><g transform="translate(-3.3306690738754696e-16, 0.000005582432125698575) rotate(0)"><path style="stroke-width: 0px; stroke-linecap: butt; stroke-linejoin: miter; fill: rgb(255, 255, 255);" d="M9.71274,5.50439l-8.68422,-5.40003c-0.20155,-0.12561 -0.46273,-0.13861 -0.67809,-0.0348c-0.21557,0.1038 -0.35043,0.30801 -0.35043,0.53042v10.80003c0,0.2226 0.13486,0.42661 0.35043,0.53039c0.09649,0.0466 0.20218,0.0696 0.30746,0.0696c0.12984,0 0.25944,-0.03521 0.3706,-0.104l8.68422,-5.40003c0.17983,-0.11179 0.28729,-0.29719 0.28729,-0.49581c0,-0.19862 -0.10767,-0.38399 -0.28726,-0.49578zM1.3158,10.26461v-8.52944l6.85833,4.26482z" vector-effect="non-scaling-stroke"/></g><defs><path id="path-15974068729488159" d="M9.71274,5.50439l-8.68422,-5.40003c-0.20155,-0.12561 -0.46273,-0.13861 -0.67809,-0.0348c-0.21557,0.1038 -0.35043,0.30801 -0.35043,0.53042v10.80003c0,0.2226 0.13486,0.42661 0.35043,0.53039c0.09649,0.0466 0.20218,0.0696 0.30746,0.0696c0.12984,0 0.25944,-0.03521 0.3706,-0.104l8.68422,-5.40003c0.17983,-0.11179 0.28729,-0.29719 0.28729,-0.49581c0,-0.19862 -0.10767,-0.38399 -0.28726,-0.49578zM1.3158,10.26461v-8.52944l6.85833,4.26482z" vector-effect="non-scaling-stroke"/></defs></g></svg>