<svg width="41" height="44" viewBox="0 0 41 44" fill="none" xmlns="http://www.w3.org/2000/svg">
<path d="M28.3294 30.0031L22.1432 30.1576C21.4079 30.176 20.8509 29.5832 20.768 28.8494L20.5389 19.6766C20.5205 18.9412 21.1117 18.3197 21.8471 18.3013C22.5825 18.2829 23.204 18.8742 23.2223 19.6095L23.4179 27.4406L28.2624 27.3196C28.9978 27.3013 29.6193 27.8925 29.6376 28.6278C29.656 29.3632 29.0712 29.9846 28.3294 30.0031Z" fill="white"/>
<path d="M21.9628 38.5323C23.4991 38.7577 25.051 38.7117 26.5635 38.5083C26.5635 38.5083 28.4122 38.1455 28.5724 39.9196C28.7759 41.6661 27.0608 41.8617 27.0608 41.8617C25.2179 42.1479 23.2942 42.1114 21.4943 41.8684C20.5737 41.6643 19.94 40.87 20.0654 39.9691C20.2675 39.0406 21.0619 38.4068 21.9628 38.5323Z" fill="white"/>
<path d="M30.7484 37.2642C32.1339 36.5632 33.3757 35.6313 34.4946 34.5936C34.4946 34.5936 35.7965 33.2317 36.9497 34.5894C38.1225 35.8995 36.8335 37.0477 36.8335 37.0477C35.4922 38.3435 33.899 39.4222 32.2879 40.2608C31.4179 40.6245 30.4422 40.3405 30.0256 39.5319C29.6558 38.6565 29.9398 37.6809 30.7484 37.2642Z" fill="white"/>
<path d="M13.292 34.4407C14.516 35.5219 15.8736 36.4025 17.3472 37.0784C18.443 37.5814 18.3749 38.9111 18.1449 39.2278C17.7342 40.0247 16.7136 40.4559 15.9167 40.0452C14.2366 39.2455 12.5818 38.1803 11.1237 36.8985C10.4507 36.2813 10.3636 35.2663 10.9789 34.5855C11.5943 33.9046 12.6111 33.8254 13.292 34.4407Z" fill="white"/>
<path d="M9.50644 30.9217C10.2857 30.6595 10.6044 29.8346 10.2843 29.0941C10.0418 28.4692 9.56375 26.955 9.48821 26.8297C8.30954 21.6303 10.1781 16.1659 14.2475 12.7621C18.2592 9.42221 23.7623 8.55945 28.5434 10.4333L25.988 11.4327C25.3053 11.714 24.8901 12.5198 25.2101 13.2603C25.4914 13.943 26.2972 14.3582 27.0377 14.0382L32.4127 11.9211C32.7522 11.7775 33.6502 11.0924 33.2542 10.0509L31.0945 4.61227C30.8132 3.92957 30.0075 3.51434 29.2669 3.83437C28.4822 4.25101 28.2465 5.03709 28.4642 5.76239L29.1977 7.63314C24.0923 5.80051 17.4614 6.35487 12.4285 10.5713C7.35333 14.8245 5.18259 21.6137 6.84049 27.9915C6.88335 28.1805 7.45578 29.6231 7.66919 30.1419C7.93528 30.9269 8.76014 31.2456 9.50644 30.9217Z" fill="white"/>
<path d="M30.7538 31.0653L30.7431 29.9284L32.0615 29.9193L32.0283 26.4131L30.8915 26.421L30.8832 25.5517C31.2138 25.4857 31.4933 25.4073 31.7218 25.3165C31.9502 25.2258 32.1721 25.116 32.3875 24.9871L33.4193 24.9799L33.4659 29.9095L34.6028 29.9017L34.6135 31.0385L30.7538 31.0653ZM37.6557 31.1321C37.3309 31.1343 37.0341 31.0695 36.7653 30.9376C36.4965 30.7994 36.2653 30.5971 36.0717 30.331C35.8844 30.0648 35.7348 29.7346 35.6228 29.3405C35.5172 28.9463 35.4619 28.4913 35.4571 27.9754C35.4522 27.4595 35.4989 27.0069 35.5971 26.6177C35.7017 26.2285 35.8451 25.9026 36.0273 25.6402C36.2159 25.3714 36.4433 25.1724 36.7096 25.0431C36.9759 24.9075 37.2714 24.8386 37.5962 24.8363C37.921 24.8341 38.2178 24.8989 38.4866 25.0308C38.7553 25.1563 38.9833 25.3522 39.1705 25.6184C39.3641 25.8782 39.5136 26.202 39.6192 26.5898C39.7311 26.9776 39.7895 27.4294 39.7944 27.9453C39.7993 28.4612 39.7495 28.917 39.6449 29.3126C39.5467 29.7082 39.4034 30.0404 39.2148 30.3092C39.0327 30.578 38.8085 30.7833 38.5423 30.9253C38.2761 31.0609 37.9805 31.1298 37.6557 31.1321ZM37.6454 30.043C37.7664 30.0422 37.8776 30.0127 37.979 29.9547C38.0803 29.8903 38.1684 29.7782 38.2433 29.6185C38.3183 29.4587 38.3736 29.245 38.4092 28.9772C38.4513 28.7094 38.4704 28.3685 38.4665 27.9545C38.4625 27.5405 38.4371 27.2031 38.39 26.9423C38.3493 26.6751 38.29 26.4685 38.2122 26.3225C38.1343 26.1702 38.0441 26.0657 37.9417 26.0091C37.8392 25.9525 37.7275 25.9246 37.6065 25.9254C37.4919 25.9262 37.3839 25.9556 37.2825 26.0137C37.1811 26.0717 37.093 26.1774 37.018 26.3308C36.9429 26.4778 36.8844 26.6852 36.8423 26.953C36.8002 27.2145 36.7811 27.5522 36.785 27.9662C36.7889 28.3801 36.8144 28.7207 36.8616 28.9879C36.9087 29.2551 36.9712 29.4681 37.0491 29.6267C37.1271 29.7854 37.2173 29.8963 37.3198 29.9593C37.4222 30.0159 37.5308 30.0438 37.6454 30.043Z" fill="white"/>
</svg>
