<svg width="40" height="40" viewBox="0 0 40 40" fill="none" xmlns="http://www.w3.org/2000/svg">
<g id="Iconly/Light-Outline/Time Circle">
<g id="Time Circle">
<path id="Fill 1" fill-rule="evenodd" clip-rule="evenodd" d="M19.5832 5.71196C11.9343 5.71196 5.71165 11.9346 5.71165 19.5835C5.71165 27.2324 11.9343 33.455 19.5832 33.455C27.2321 33.455 33.4547 27.2324 33.4547 19.5835C33.4547 11.9346 27.2321 5.71196 19.5832 5.71196ZM19.5831 35.9031C10.5846 35.9031 3.26367 28.5821 3.26367 19.5836C3.26367 10.5851 10.5846 3.26416 19.5831 3.26416C28.5817 3.26416 35.9026 10.5851 35.9026 19.5836C35.9026 28.5821 28.5817 35.9031 19.5831 35.9031Z" fill="white"/>
<path id="Fill 3" fill-rule="evenodd" clip-rule="evenodd" d="M25.1821 25.6092C24.9683 25.6092 24.7529 25.5537 24.5554 25.4378L18.403 21.7676C18.0341 21.5456 17.8057 21.1458 17.8057 20.715V12.8033C17.8057 12.1277 18.354 11.5793 19.0296 11.5793C19.7069 11.5793 20.2536 12.1277 20.2536 12.8033V20.0198L25.8104 23.3326C26.3897 23.6802 26.5806 24.4309 26.2347 25.0119C26.0046 25.3954 25.5982 25.6092 25.1821 25.6092Z" fill="white"/>
</g>
</g>
</svg>
