<svg width="41" height="44" viewBox="0 0 41 44" fill="none" xmlns="http://www.w3.org/2000/svg">
<path d="M0.7 32V30.81H2.08V27.14H0.89V26.23C1.23667 26.1633 1.53 26.0833 1.77 25.99C2.01 25.8967 2.24333 25.7833 2.47 25.65H3.55V30.81H4.74V32H0.7ZM7.9232 32.12C7.5832 32.12 7.2732 32.05 6.9932 31.91C6.7132 31.7633 6.4732 31.55 6.2732 31.27C6.07987 30.99 5.92654 30.6433 5.8132 30.23C5.70654 29.8167 5.6532 29.34 5.6532 28.8C5.6532 28.26 5.70654 27.7867 5.8132 27.38C5.92654 26.9733 6.07987 26.6333 6.2732 26.36C6.4732 26.08 6.7132 25.8733 6.9932 25.74C7.2732 25.6 7.5832 25.53 7.9232 25.53C8.2632 25.53 8.5732 25.6 8.8532 25.74C9.1332 25.8733 9.36987 26.08 9.5632 26.36C9.7632 26.6333 9.91654 26.9733 10.0232 27.38C10.1365 27.7867 10.1932 28.26 10.1932 28.8C10.1932 29.34 10.1365 29.8167 10.0232 30.23C9.91654 30.6433 9.7632 30.99 9.5632 31.27C9.36987 31.55 9.1332 31.7633 8.8532 31.91C8.5732 32.05 8.2632 32.12 7.9232 32.12ZM7.9232 30.98C8.04987 30.98 8.16654 30.95 8.2732 30.89C8.37987 30.8233 8.4732 30.7067 8.5532 30.54C8.6332 30.3733 8.6932 30.15 8.7332 29.87C8.77987 29.59 8.8032 29.2333 8.8032 28.8C8.8032 28.3667 8.77987 28.0133 8.7332 27.74C8.6932 27.46 8.6332 27.2433 8.5532 27.09C8.4732 26.93 8.37987 26.82 8.2732 26.76C8.16654 26.7 8.04987 26.67 7.9232 26.67C7.8032 26.67 7.68987 26.7 7.5832 26.76C7.47654 26.82 7.3832 26.93 7.3032 27.09C7.2232 27.2433 7.15987 27.46 7.1132 27.74C7.06654 28.0133 7.0432 28.3667 7.0432 28.8C7.0432 29.2333 7.06654 29.59 7.1132 29.87C7.15987 30.15 7.2232 30.3733 7.3032 30.54C7.3832 30.7067 7.47654 30.8233 7.5832 30.89C7.68987 30.95 7.8032 30.98 7.9232 30.98Z" fill="white"/>
<path d="M12.6686 30.0031L18.8548 30.1576C19.5902 30.176 20.1472 29.5832 20.2301 28.8494L20.4592 19.6766C20.4775 18.9412 19.8863 18.3197 19.151 18.3013C18.4156 18.2829 17.7941 18.8742 17.7757 19.6095L17.5801 27.4406L12.7357 27.3196C12.0003 27.3013 11.3788 27.8925 11.3604 28.6278C11.342 29.3632 11.9268 29.9846 12.6686 30.0031Z" fill="white"/>
<path d="M19.0372 38.5323C17.5009 38.7577 15.949 38.7117 14.4365 38.5083C14.4365 38.5083 12.5878 38.1455 12.4276 39.9196C12.2241 41.6661 13.9392 41.8617 13.9392 41.8617C15.7821 42.1479 17.7058 42.1114 19.5057 41.8684C20.4263 41.6643 21.06 40.87 20.9346 39.9691C20.7325 39.0406 19.9381 38.4068 19.0372 38.5323Z" fill="white"/>
<path d="M9.39342 37.657C8.00025 36.9713 6.7482 36.0532 5.61784 35.0279C5.61784 35.0279 4.30099 33.6805 3.16283 35.0508C2.00467 36.3739 3.3063 37.5077 3.3063 37.5077C4.66183 38.7886 6.26685 39.8497 7.88707 40.6704C8.76107 41.0244 9.73355 40.7296 10.1412 39.9165C10.5013 39.0371 10.2066 38.0646 9.39342 37.657Z" fill="white"/>
<path d="M27.708 34.4407C26.484 35.5219 25.1264 36.4025 23.6528 37.0784C22.557 37.5814 22.6251 38.9111 22.8551 39.2278C23.2658 40.0247 24.2864 40.4559 25.0833 40.0452C26.7634 39.2455 28.4182 38.1803 29.8763 36.8985C30.5493 36.2813 30.6364 35.2663 30.0211 34.5855C29.4057 33.9046 28.3889 33.8254 27.708 34.4407Z" fill="white"/>
<path d="M31.4936 30.9217C30.7143 30.6595 30.3956 29.8346 30.7157 29.0941C30.9582 28.4692 31.4362 26.955 31.5118 26.8297C32.6905 21.6303 30.8219 16.1659 26.7525 12.7621C22.7408 9.42221 17.2377 8.55945 12.4566 10.4333L15.012 11.4327C15.6947 11.714 16.1099 12.5198 15.7899 13.2603C15.5086 13.943 14.7028 14.3582 13.9623 14.0382L8.58726 11.9211C8.24785 11.7775 7.34981 11.0924 7.74576 10.0509L9.90547 4.61227C10.1868 3.92957 10.9925 3.51434 11.7331 3.83437C12.5178 4.25101 12.7535 5.03709 12.5358 5.76239L11.8023 7.63314C16.9077 5.80051 23.5386 6.35487 28.5715 10.5713C33.6467 14.8245 35.8174 21.6137 34.1595 27.9915C34.1166 28.1805 33.5442 29.6231 33.3308 30.1419C33.0647 30.9269 32.2399 31.2456 31.4936 30.9217Z" fill="white"/>
</svg>
