<svg version="1.2" xmlns="http://www.w3.org/2000/svg" xmlns:xlink="http://www.w3.org/1999/xlink" overflow="visible" preserveAspectRatio="none" viewBox="0 0 24 19" width="24" height="19"><g transform="translate(0, 0)"><defs><path id="path-1599929694370128" d="M14.751500600240101 28.200787401574797 C23.807923169267717 28.200787401574797 28.763505402160877 20.88877952755905 28.763505402160877 14.558562992125985 C28.763505402160877 14.35285433070865 28.763505402160877 14.147145669291332 28.753901560624257 13.94143700787402 C29.714285714285737 13.268208661417319 30.549819927971203 12.417322834645661 31.21248499399763 11.454232283464565 C30.328931572629063 11.837598425196846 29.378151260504225 12.090059055118104 28.379351740696293 12.211614173228343 C29.397358943577437 11.622539370078737 30.175270108043236 10.67814960629921 30.549819927971203 9.55610236220472 C29.59903961584637 10.107775590551181 28.542617046818744 10.500492125984254 27.418967587034846 10.71555118110236 C26.516206482593066 9.78051181102362 25.238895558223305 9.200787401574807 23.827130852340954 9.200787401574807 C21.109243697479 9.200787401574807 18.90036014405763 11.351377952755898 18.90036014405763 13.997539370078737 C18.90036014405763 14.371555118110233 18.948379351740705 14.736220472440944 19.025210084033628 15.091535433070865 C14.933973589435782 14.895177165354328 11.303721488595453 12.978346456692908 8.87394957983194 10.079724409448817 C8.451380552220895 10.790354330708661 8.211284513805525 11.61318897637795 8.211284513805525 12.492125984251969 C8.211284513805525 14.156496062992119 9.085234093637464 15.624507874015745 10.400960384153674 16.48474409448819 C9.594237695078032 16.45669291338582 8.835534213685479 16.24163385826771 8.17286914765907 15.886318897637796 C8.17286914765907 15.905019685039367 8.17286914765907 15.923720472440944 8.17286914765907 15.951771653543297 C8.17286914765907 18.270669291338585 9.872749099639863 20.215551181102356 12.120048019207692 20.65501968503937 C11.707082833133269 20.76722440944881 11.274909963985605 20.82332677165354 10.823529411764715 20.82332677165354 C10.506602641056434 20.82332677165354 10.199279711884769 20.795275590551167 9.901560624249711 20.739173228346456 C10.52581032412966 22.646653543307078 12.350540216086443 24.030511811023622 14.501800720288129 24.067913385826767 C12.811524609843948 25.35826771653542 10.68907563025211 26.125000000000004 8.384153661464596 26.125000000000004 C7.990396158463396 26.125000000000004 7.59663865546219 26.106299212598426 7.212484993997604 26.059547244094478 C9.382953181272512 27.406003937007863 11.975990396158478 28.200787401574797 14.751500600240101 28.200787401574797" vector-effect="non-scaling-stroke"/></defs><g transform="translate(-7.212484993997604, -9.200787401574807)"><path d="M14.751500600240101 28.200787401574797 C23.807923169267717 28.200787401574797 28.763505402160877 20.88877952755905 28.763505402160877 14.558562992125985 C28.763505402160877 14.35285433070865 28.763505402160877 14.147145669291332 28.753901560624257 13.94143700787402 C29.714285714285737 13.268208661417319 30.549819927971203 12.417322834645661 31.21248499399763 11.454232283464565 C30.328931572629063 11.837598425196846 29.378151260504225 12.090059055118104 28.379351740696293 12.211614173228343 C29.397358943577437 11.622539370078737 30.175270108043236 10.67814960629921 30.549819927971203 9.55610236220472 C29.59903961584637 10.107775590551181 28.542617046818744 10.500492125984254 27.418967587034846 10.71555118110236 C26.516206482593066 9.78051181102362 25.238895558223305 9.200787401574807 23.827130852340954 9.200787401574807 C21.109243697479 9.200787401574807 18.90036014405763 11.351377952755898 18.90036014405763 13.997539370078737 C18.90036014405763 14.371555118110233 18.948379351740705 14.736220472440944 19.025210084033628 15.091535433070865 C14.933973589435782 14.895177165354328 11.303721488595453 12.978346456692908 8.87394957983194 10.079724409448817 C8.451380552220895 10.790354330708661 8.211284513805525 11.61318897637795 8.211284513805525 12.492125984251969 C8.211284513805525 14.156496062992119 9.085234093637464 15.624507874015745 10.400960384153674 16.48474409448819 C9.594237695078032 16.45669291338582 8.835534213685479 16.24163385826771 8.17286914765907 15.886318897637796 C8.17286914765907 15.905019685039367 8.17286914765907 15.923720472440944 8.17286914765907 15.951771653543297 C8.17286914765907 18.270669291338585 9.872749099639863 20.215551181102356 12.120048019207692 20.65501968503937 C11.707082833133269 20.76722440944881 11.274909963985605 20.82332677165354 10.823529411764715 20.82332677165354 C10.506602641056434 20.82332677165354 10.199279711884769 20.795275590551167 9.901560624249711 20.739173228346456 C10.52581032412966 22.646653543307078 12.350540216086443 24.030511811023622 14.501800720288129 24.067913385826767 C12.811524609843948 25.35826771653542 10.68907563025211 26.125000000000004 8.384153661464596 26.125000000000004 C7.990396158463396 26.125000000000004 7.59663865546219 26.106299212598426 7.212484993997604 26.059547244094478 C9.382953181272512 27.406003937007863 11.975990396158478 28.200787401574797 14.751500600240101 28.200787401574797" style="stroke-width: 0; stroke-linecap: butt; stroke-linejoin: miter; fill: rgb(255, 255, 255);" vector-effect="non-scaling-stroke"/></g></g></svg>