<svg width="30" height="30" viewBox="0 0 30 30" fill="none" xmlns="http://www.w3.org/2000/svg">
<g clip-path="url(#clip0)">
<path d="M20.6433 21.6678C20.3817 21.6678 20.1197 21.5684 19.9207 21.3679C19.521 20.9684 19.521 20.3205 19.9207 19.921L25.9108 13.9309C27.2294 12.6246 27.955 10.8791 27.955 9.01094C27.955 5.1711 24.831 2.04709 20.9911 2.04709C19.123 2.04709 17.3775 2.77117 16.0739 4.08699L10.0741 10.0856C9.6746 10.4851 9.02693 10.4851 8.62744 10.0856C8.22795 9.68583 8.22795 9.03816 8.62744 8.63867L14.6218 2.64433C16.3099 0.93976 18.5735 0.00170898 20.9896 0.00170898C25.9573 0.00170898 29.9989 4.04329 29.9989 9.01094C29.9989 11.4286 29.0593 13.6922 27.3535 15.3815L21.3674 21.3679C21.1669 21.5669 20.9052 21.6678 20.6433 21.6678Z" fill="#AAA6A6"/>
<path d="M9.00923 30.0002C4.04158 30.0002 0 25.9586 0 20.991C0 18.5733 0.939549 16.31 2.64537 14.6204L6.27672 10.9905C6.67621 10.591 7.32389 10.591 7.72337 10.9905C8.12286 11.39 8.12286 12.0377 7.72337 12.4372L4.08952 16.0713C2.76946 17.3761 2.04538 19.1216 2.04538 20.991C2.04538 24.8311 5.16939 27.9548 9.00923 27.9548C10.8773 27.9548 12.6229 27.2308 13.9264 25.915L17.563 22.2784C17.9625 21.8789 18.6102 21.8789 19.0097 22.2784C19.4094 22.6778 19.4094 23.3255 19.0097 23.725L15.3758 27.3591C13.689 29.0622 11.4256 30.0002 9.00923 30.0002Z" fill="#AAA6A6"/>
<path d="M14.9999 16.0239C14.7379 16.0239 14.4763 15.9242 14.277 15.7237C13.8775 15.3243 13.8775 14.6766 14.277 14.2771L19.7313 8.82257C20.131 8.42308 20.7787 8.42308 21.1782 8.82257C21.5777 9.22231 21.5777 9.86998 21.1782 10.2695L15.7239 15.7237C15.5234 15.9242 15.2615 16.0239 14.9999 16.0239Z" fill="#AAA6A6"/>
<path d="M9.54484 21.4771C9.28317 21.4771 9.02126 21.3775 8.82226 21.1773C8.42277 20.7775 8.42277 20.1299 8.82226 19.7304L11.8631 16.6895C12.2626 16.29 12.9103 16.29 13.3098 16.6895C13.7093 17.0892 13.7093 17.7369 13.3098 18.1364L10.2689 21.1773C10.0684 21.3775 9.80675 21.4771 9.54484 21.4771Z" fill="#AAA6A6"/>
<path d="M28.9763 29.9999C28.7147 29.9999 28.4527 29.9005 28.2537 29.7L0.299983 1.74652C-0.0995061 1.34678 -0.0995061 0.699106 0.299983 0.299617C0.699722 -0.0998723 1.34739 -0.0998723 1.74688 0.299617L29.7004 28.2531C30.0999 28.6529 30.0999 29.3005 29.7004 29.7C29.4999 29.9005 29.2382 29.9999 28.9763 29.9999Z" fill="#AAA6A6"/>
</g>
<defs>
<clipPath id="clip0">
<rect width="30" height="30" fill="white"/>
</clipPath>
</defs>
</svg>
