<svg width="512" height="512" viewBox="0 0 512 512" fill="none" xmlns="http://www.w3.org/2000/svg">
<path d="M256 86.3999C307.2 86.3999 354.133 107.733 388.267 140.8L437.334 91.7329C391.467 45.8669 327.467 17.0669 256 17.0669C185.6 17.0669 121.6 45.8669 74.667 91.7339L123.734 140.801C157.867 106.667 204.8 86.3999 256 86.3999Z" fill="#F8B64C"/>
<path d="M123.733 140.8L74.667 91.7329C28.8 138.667 0 202.667 0 273.067C0 343.467 28.8 407.467 74.667 454.4L123.734 405.333C89.601 371.2 69.334 324.266 69.334 273.066C69.333 221.867 89.6 174.933 123.733 140.8Z" fill="#54C0EB"/>
<path d="M437.333 91.7329L388.267 140.8C422.4 174.933 442.667 221.867 442.667 273.067C442.667 324.267 421.334 371.2 388.267 405.334L437.334 454.401C483.2 408.533 512 344.533 512 273.067C512 202.667 483.2 138.667 437.333 91.7329Z" fill="#29AB86"/>
<path d="M388.267 140.8L341.334 187.733C318.934 166.4 289.067 152.533 256.001 152.533C222.935 152.533 192.001 166.4 170.668 187.733L123.733 140.8C157.867 106.667 204.8 86.3999 256 86.3999C307.2 86.3999 354.133 106.667 388.267 140.8Z" fill="#FFD15C"/>
<path d="M170.667 358.4L123.734 405.333C89.601 371.2 69.334 324.266 69.334 273.066C69.334 221.866 90.667 174.933 123.734 140.799L170.667 187.732C149.334 209.065 135.467 239.999 135.467 273.065C134.4 306.133 148.267 337.067 170.667 358.4Z" fill="#84DBFF"/>
<path d="M442.667 273.067C442.667 324.267 421.334 371.2 388.267 405.334L341.333 358.4C362.666 336 376.533 306.133 376.533 273.067C376.533 240.001 362.666 209.067 341.333 187.734L388.266 140.801C422.4 174.933 442.667 221.867 442.667 273.067Z" fill="#2BB58E"/>
<path d="M420.267 171.733L281.6 277.333C279.467 290.133 268.8 298.666 256 298.666C241.067 298.666 229.333 286.933 229.333 271.999C229.333 257.065 241.066 245.332 256 245.332C259.2 245.332 261.333 245.332 264.533 246.399L420.267 171.733Z" fill="#2D3E52"/>
<path d="M347.733 494.933H164.267C141.867 494.933 123.734 476.8 123.734 454.4C123.734 432 141.867 413.867 164.267 413.867H346.667C369.067 413.867 387.2 432 387.2 454.4C388.267 476.8 370.133 494.933 347.733 494.933Z" fill="#CDD6E0"/>
<path d="M256 283.737C261.891 283.737 266.667 278.961 266.667 273.07C266.667 267.179 261.891 262.403 256 262.403C250.109 262.403 245.333 267.179 245.333 273.07C245.333 278.961 250.109 283.737 256 283.737Z" fill="white"/>
</svg>
